<?xml version="1.0" standalone="no"?>
<!DOCTYPE svg PUBLIC "-//W3C//DTD SVG 20010904//EN"
 "http://www.w3.org/TR/2001/REC-SVG-20010904/DTD/svg10.dtd">
<svg version="1.0" xmlns="http://www.w3.org/2000/svg"
 width="500.000000pt" height="500.000000pt" viewBox="0 0 500.000000 500.000000"
 preserveAspectRatio="xMidYMid meet">

<defs>
  <linearGradient id="redGradient" x1="0%" y1="0%" x2="100%" y2="100%">
    <stop offset="0%" stop-color="#dc2626" />
    <stop offset="100%" stop-color="#991b1b" />
  </linearGradient>
</defs>

<g transform="translate(0.000000,500.000000) scale(0.100000,-0.100000)"
fill="url(#redGradient)" stroke="none">
<path d="M1527 3386 l-107 -112 2 -580 3 -579 30 -15 c17 -8 59 -32 95 -52 36
-20 88 -48 115 -63 28 -16 106 -59 175 -98 69 -38 154 -85 190 -105 36 -20 87
-48 113 -64 26 -15 50 -28 52 -28 2 0 47 -25 100 -55 54 -30 105 -55 114 -55
9 0 30 25 49 56 l32 56 0 455 c0 387 -2 454 -14 450 -8 -3 -91 -43 -185 -89
l-170 -83 -3 -171 -3 -172 -155 83 -155 83 0 453 0 454 158 3 157 3 0 -171 c0
-95 4 -170 9 -170 5 0 88 39 185 86 l176 86 0 143 0 142 41 47 c22 25 45 46
50 46 5 0 9 -333 9 -825 0 -454 2 -825 4 -825 2 0 75 57 162 126 87 70 169
133 181 141 l23 15 0 284 0 284 113 0 c61 0 117 4 122 8 6 4 27 27 46 52 19
25 70 89 112 142 42 53 77 99 77 102 0 3 -106 6 -235 6 l-236 0 3 138 3 137
257 3 257 2 73 92 c40 50 90 114 111 141 21 27 47 59 58 70 10 12 19 24 19 29
0 4 -474 7 -1052 7 l-1053 -2 -108 -111z"/>
</g>
</svg>
